<svg xmlns="http://www.w3.org/2000/svg" width="200" height="145" viewBox="0 0 200 145" fill="none">
  <path d="M 13 17 L 13 39 L 15 42 L 17 42 L 18 43 L 19 43 L 20 42 L 22 42 L 24 40 L 24 34 L 23 33 L 23 32 L 22 32 L 21 31 L 16 31 L 15 30 L 15 26 L 16 25 L 16 19 L 17 18 L 18 15 L 23 10 L 24 10 L 27 8 L 29 8 L 30 7 L 35 7 L 36 8 L 37 8 L 41 12 L 41 13 L 42 14 L 42 103 L 41 104 L 41 107 L 40 108 L 40 109 L 38 111 L 36 111 L 33 113 L 35 113 L 36 114 L 53 114 L 54 113 L 55 113 L 56 112 L 59 111 L 62 108 L 59 103 L 59 99 L 58 98 L 58 7 L 59 6 L 81 6 L 82 7 L 88 7 L 89 8 L 92 8 L 93 9 L 94 9 L 95 10 L 96 10 L 97 11 L 100 12 L 102 14 L 103 14 L 110 21 L 110 22 L 114 27 L 114 28 L 115 29 L 115 31 L 117 34 L 117 36 L 118 37 L 118 39 L 119 40 L 119 44 L 120 45 L 120 50 L 121 51 L 121 68 L 120 69 L 120 73 L 121 73 L 122 72 L 124 72 L 125 71 L 127 71 L 128 70 L 132 70 L 133 69 L 138 69 L 138 63 L 139 62 L 139 52 L 138 51 L 138 44 L 137 43 L 137 40 L 136 39 L 136 37 L 135 36 L 135 35 L 134 34 L 134 33 L 133 32 L 132 29 L 130 27 L 130 26 L 128 24 L 128 23 L 118 13 L 117 13 L 115 11 L 114 11 L 113 10 L 112 10 L 111 9 L 110 9 L 105 6 L 103 6 L 102 5 L 99 5 L 98 4 L 94 4 L 93 3 L 87 3 L 86 2 L 55 2 L 54 3 L 35 3 L 34 2 L 30 2 L 29 3 L 26 3 L 25 4 L 22 5 L 16 11 L 16 12 Z M 192 81 L 187 78 L 185 78 L 184 77 L 182 77 L 181 76 L 178 76 L 177 75 L 174 75 L 173 74 L 169 74 L 168 73 L 162 73 L 161 72 L 143 72 L 142 73 L 135 73 L 134 74 L 130 74 L 129 75 L 126 75 L 125 76 L 123 76 L 122 77 L 120 77 L 119 78 L 117 78 L 112 81 L 110 81 L 109 82 L 106 83 L 104 85 L 103 85 L 102 86 L 99 87 L 97 89 L 94 90 L 92 92 L 91 92 L 88 95 L 87 95 L 85 97 L 84 97 L 81 100 L 80 100 L 77 103 L 76 103 L 74 105 L 73 105 L 66 111 L 65 111 L 63 113 L 62 113 L 57 117 L 56 117 L 55 118 L 54 118 L 53 119 L 52 119 L 51 120 L 50 120 L 45 123 L 43 123 L 42 124 L 39 124 L 38 125 L 23 125 L 23 126 L 24 126 L 25 127 L 26 127 L 31 130 L 33 130 L 34 131 L 36 131 L 37 132 L 40 132 L 41 133 L 62 133 L 63 132 L 67 132 L 68 131 L 71 131 L 72 130 L 74 130 L 75 129 L 77 129 L 80 127 L 82 127 L 83 126 L 84 126 L 85 125 L 86 125 L 87 124 L 88 124 L 89 123 L 90 123 L 91 122 L 92 122 L 93 121 L 94 121 L 95 120 L 98 119 L 100 117 L 101 117 L 102 116 L 103 116 L 105 114 L 108 113 L 113 109 L 116 108 L 121 104 L 124 103 L 129 99 L 132 98 L 134 96 L 135 96 L 136 95 L 139 94 L 141 92 L 142 92 L 143 91 L 144 91 L 149 88 L 151 88 L 154 86 L 156 86 L 157 85 L 159 85 L 160 84 L 163 84 L 164 83 L 168 83 L 169 82 L 177 82 L 178 81 L 182 81 L 183 82 L 192 82 Z M 186 86 L 174 86 L 173 87 L 169 87 L 168 88 L 165 88 L 164 89 L 162 89 L 161 90 L 159 90 L 158 91 L 157 91 L 156 92 L 155 92 L 154 93 L 153 93 L 152 94 L 151 94 L 150 95 L 149 95 L 148 96 L 145 97 L 143 99 L 140 100 L 135 104 L 132 105 L 130 107 L 129 107 L 124 111 L 121 112 L 119 114 L 118 114 L 116 116 L 115 116 L 110 120 L 107 121 L 102 125 L 99 126 L 97 128 L 96 128 L 95 129 L 94 129 L 93 130 L 92 130 L 87 133 L 85 133 L 84 134 L 82 134 L 81 135 L 78 135 L 77 136 L 73 136 L 72 137 L 63 137 L 62 138 L 57 138 L 57 139 L 59 139 L 60 140 L 64 140 L 65 141 L 69 141 L 70 142 L 77 142 L 78 143 L 83 143 L 84 142 L 91 142 L 92 141 L 97 141 L 98 140 L 102 140 L 103 139 L 105 139 L 106 138 L 108 138 L 111 136 L 113 136 L 114 135 L 115 135 L 116 134 L 119 133 L 121 131 L 122 131 L 124 129 L 125 129 L 127 127 L 128 127 L 131 124 L 132 124 L 135 121 L 136 121 L 139 118 L 140 118 L 144 114 L 145 114 L 148 111 L 149 111 L 153 107 L 154 107 L 158 103 L 159 103 L 166 97 L 169 96 L 171 94 L 172 94 L 173 93 L 174 93 L 179 90 L 181 90 L 182 89 L 185 88 L 185 87 Z M 186 95 L 185 95 L 184 96 L 180 96 L 179 97 L 177 97 L 176 98 L 174 98 L 173 99 L 170 100 L 168 102 L 167 102 L 163 106 L 163 107 L 160 110 L 160 111 L 157 114 L 157 115 L 150 122 L 149 122 L 147 124 L 146 124 L 145 125 L 143 125 L 142 126 L 140 126 L 139 127 L 137 127 L 137 128 L 150 128 L 151 127 L 153 127 L 154 126 L 155 126 L 156 125 L 159 124 L 162 121 L 163 121 L 167 117 L 167 116 L 171 111 L 171 110 L 172 109 L 173 106 L 180 99 L 181 99 L 182 98 L 185 97 L 186 96 Z" fill="rgb(26,72,38)" fill-rule="evenodd" clip-rule="evenodd"/>
</svg>
